HIERARCHY
ROOT Hips
{
  OFFSET -17.8222 7.7 127.125
  CHANNELS 6 Xposition Yposition Zposition Zrotation Xrotation Yrotation
  JOINT Spine
  {
    OFFSET 0 0 0
    CHANNELS 3 Zrotation Xrotation Yrotation
    JOINT Spine1
    {
      OFFSET 19 0 0
      CHANNELS 3 Zrotation Xrotation Yrotation
      JOINT Neck
      {
        OFFSET 22.5 0.6 0
        CHANNELS 3 Zrotation Xrotation Yrotation
        JOINT Head
        {
          OFFSET 14 0.0308777 0
          CHANNELS 3 Zrotation Xrotation Yrotation
          End Site
          {
            OFFSET 17 0 0
          }
        }
      }
      JOINT LeftShoulder
      {
        OFFSET 19.8 3.7 4.3
        CHANNELS 3 Zrotation Xrotation Yrotation
        JOINT LeftArm
        {
          OFFSET 8 0 0
          CHANNELS 3 Zrotation Xrotation Yrotation
          JOINT LeftForeArm
          {
            OFFSET 15.2 0 0
            CHANNELS 3 Zrotation Xrotation Yrotation
            JOINT LeftHand
            {
              OFFSET 17.8 0 0
              CHANNELS 3 Zrotation Xrotation Yrotation
              End Site
              {
                OFFSET 7.2 0 0
              }
            }
          }
        }
      }
      JOINT RightShoulder
      {
        OFFSET 19.8 3.7 -4.3
        CHANNELS 3 Zrotation Xrotation Yrotation
        JOINT RightArm
        {
          OFFSET 8 0 0.151654
          CHANNELS 3 Zrotation Xrotation Yrotation
          JOINT RightForeArm
          {
            OFFSET 15.2 0 0
            CHANNELS 3 Zrotation Xrotation Yrotation
            JOINT RightHand
            {
              OFFSET 17.8 0 0
              CHANNELS 3 Zrotation Xrotation Yrotation
              End Site
              {
                OFFSET 7.2 0 0
              }
            }
          }
        }
      }
    }
  }
  JOINT LeftUpLeg
  {
    OFFSET 5.98425 -7.666 4.78879
    CHANNELS 3 Zrotation Xrotation Yrotation
    JOINT LeftLeg
    {
      OFFSET 16 0 0
      CHANNELS 3 Zrotation Xrotation Yrotation
      JOINT LeftFoot
      {
        OFFSET 18 0 0
        CHANNELS 3 Zrotation Xrotation Yrotation
        End Site
        {
          OFFSET 0 -10.8 0
        }
      }
    }
  }
  JOINT RightUpLeg
  {
    OFFSET 5.98425 -7.66598 -4.78879
    CHANNELS 3 Zrotation Xrotation Yrotation
    JOINT RightLeg
    {
      OFFSET 16 0 0
      CHANNELS 3 Zrotation Xrotation Yrotation
      JOINT RightFoot
      {
        OFFSET 18 0 0
        CHANNELS 3 Zrotation Xrotation Yrotation
        End Site
        {
          OFFSET 0 -10.8 0
        }
      }
    }
  }
  JOINT Tail
  {
    OFFSET 6.83696 -0.722574 0
    CHANNELS 3 Zrotation Xrotation Yrotation
    JOINT Tail1
    {
      OFFSET 12 0 0
      CHANNELS 3 Zrotation Xrotation Yrotation
      End Site
      {
        OFFSET 12 0 0
      }
    }
  }
}
MOTION
Frames:	12
Frame Time:	0.0166667
-15.2374 46.322 -348.412 -4.73459 -1.10285 106.925 -163.809 -0.996169 -13.5209 -25.9581 -5.44658 17.8617 -21.7796 -21.3031 16.2922 -112.961 65.3418 108.259 -110.292 -36.2058 -138.601 128.045 -41.7773 -125.666 -55.8217 14.4126 -8.18614 -5.35033 1.89602 -16.418 77.3232 -25.9907 41.8214 41.5456 -50.6858 -44.0924 -60.1447 -20.4158 4.23137 -9.31317 0.204674 2.59894 -127.973 -2.42715 -18.9779 80.9291 9.33011 6.85397 46.0699 -2.81875 -5.49251 -122.762 4.34956 -4.4138 72.9825 -9.11087 -4.61085 52.9701 1.9906 -0.321725 -22.0882 60.3283 -37.9543 -2.36696 -41.5407 -6.65934 
-15.164 46.3288 -348.431 -4.83991 -1.26164 106.856 -163.82 -0.963786 -13.7063 -25.7591 -5.47059 18.1773 -21.7794 -21.1843 16.2262 -113.042 65.5245 108.286 -110.353 -36.2439 -138.688 128.111 -42.084 -126.121 -56.0245 14.5702 -7.89293 -5.39083 1.88406 -16.542 77.3034 -26.0038 41.7774 41.3541 -50.6044 -44.1184 -60.0391 -20.3382 4.17942 -9.36517 0.194357 2.61574 -127.923 -2.34733 -18.8999 81.1683 8.93609 6.70655 45.9142 -2.75551 -5.41472 -122.671 4.42541 -4.4761 73.0582 -9.15398 -4.62279 52.9983 2.0016 -0.311062 -19.9644 58.5861 -40.1915 -1.57325 -38.0087 -6.73867 
-15.0893 46.3182 -348.441 -4.81558 -1.42525 106.892 -163.593 -0.961283 -13.7348 -25.8057 -5.5492 18.4209 -21.7729 -21.128 16.1539 -113.037 65.6424 108.237 -110.316 -36.2413 -138.597 128.62 -42.5822 -126.418 -56.2426 14.2032 -7.43854 -5.10413 1.91077 -16.9135 77.2866 -26.0447 41.8265 41.1515 -50.7095 -44.1293 -60.0872 -20.3925 4.09008 -9.27953 0.209846 2.58522 -127.918 -2.48008 -18.7316 81.3053 8.58069 6.59724 46.18 -2.72076 -5.35852 -122.561 4.39356 -4.46983 73.1732 -8.97034 -4.58805 53.0613 1.96901 -0.347903 -18.259 57.2039 -41.9 -0.766408 -35.3937 -6.67975 
-15.0079 46.3059 -348.454 -4.83675 -1.49065 106.91 -163.412 -0.933181 -13.6387 -25.9508 -5.55886 18.4419 -21.8422 -20.9788 15.9929 -113.069 65.5971 108.293 -110.299 -36.2445 -138.544 128.458 -42.4786 -126.231 -56.2096 14.0603 -7.58998 -4.8481 1.90883 -16.9099 77.289 -26.0571 41.8725 41.0754 -50.8616 -44.1016 -60.2157 -20.4016 4.02887 -9.15624 0.210917 2.62149 -127.911 -2.55546 -18.6806 81.2865 8.76001 6.60562 46.4603 -2.75514 -5.40206 -122.555 4.31525 -4.48244 73.2658 -8.79939 -4.53752 53.0928 1.9304 -0.388645 -17.1146 56.1706 -43.1492 -0.0785342 -33.6698 -6.5332 
-14.9306 46.3274 -348.473 -4.99147 -1.49787 106.835 -163.304 -0.897595 -13.6273 -26.1296 -5.53668 18.4245 -21.7572 -20.9083 16.0584 -112.952 65.7257 108.283 -110.263 -36.2618 -138.414 128.083 -42.3554 -126.015 -56.2107 14.3234 -7.82338 -5.03076 1.92375 -16.7965 77.3356 -25.9712 41.8162 41.2291 -50.8243 -44.0589 -60.3882 -20.25 4.04285 -9.02163 0.199851 2.58615 -127.987 -2.65308 -18.7972 81.3354 8.50942 6.67118 46.4316 -2.73467 -5.37455 -122.556 4.3515 -4.52193 73.2196 -8.91252 -4.55488 53.0608 1.96134 -0.35507 -16.5488 55.3638 -43.8515 0.459744 -32.6115 -6.40126 
-14.8427 46.3423 -348.487 -5.19551 -1.48005 106.753 -163.257 -0.849595 -13.5812 -26.289 -5.49162 18.3556 -21.5835 -20.8421 16.2724 -112.745 66.2011 108.18 -110.286 -36.2467 -138.505 128.113 -42.8274 -126.595 -56.6001 14.15 -7.46523 -5.00079 1.96836 -17.1332 77.3561 -25.9063 41.7122 41.357 -50.8389 -44.0297 -60.5419 -20.1832 4.06517 -8.90722 0.18077 2.64285 -128.12 -2.66752 -18.9254 81.4561 8.19962 6.73608 46.3588 -2.70773 -5.34382 -122.586 4.43257 -4.5497 73.1544 -8.99167 -4.60305 53.0468 1.98528 -0.329763 -16.361 54.968 -44.2186 0.884307 -32.2098 -6.24247 
-14.7539 46.3319 -348.487 -5.24113 -1.47948 106.808 -163.187 -0.808707 -13.3646 -26.3532 -5.47001 18.2665 -21.625 -20.6929 16.2208 -112.793 66.2356 108.26 -110.327 -36.2208 -138.665 127.876 -42.9369 -126.857 -56.8173 14.1782 -7.45679 -4.96312 1.97305 -17.2211 77.2918 -25.9711 41.6342 41.2841 -50.9979 -44.0242 -60.6764 -20.3944 3.99693 -8.69622 0.294598 2.28197 -128.047 -2.64944 -18.814 81.3727 8.33391 6.73261 46.4253 -2.73344 -5.38103 -122.603 4.37607 -4.48332 73.1519 -8.91637 -4.59437 53.1603 1.96961 -0.356717 -16.2471 54.7864 -44.3096 1.0124 -32.1588 -6.13808 
-14.676 46.318 -348.48 -5.2594 -1.38745 106.864 -163.263 -0.761033 -13.1154 -26.3295 -5.42014 18.1075 -21.6748 -20.672 16.1751 -112.872 65.8899 108.385 -110.335 -36.2411 -138.647 127.558 -42.6295 -126.442 -56.6349 14.3319 -7.86071 -5.05735 1.98929 -17.1357 77.2668 -26.022 41.6789 41.1581 -51.1144 -44.1766 -60.7428 -20.2899 3.98767 -8.51482 0.285908 2.35362 -127.984 -2.6948 -18.7208 81.1325 8.59683 6.75559 46.5329 -2.77015 -5.42234 -122.698 4.27166 -4.37795 73.1222 -8.9954 -4.58026 53.2758 1.98054 -0.35665 -16.5006 54.7978 -43.9878 0.879817 -32.4869 -6.0945 
-14.6059 46.3221 -348.494 -5.42294 -1.22679 106.746 -163.531 -0.711164 -13.082 -26.2387 -5.33096 17.9678 -21.6031 -20.6278 16.2691 -112.871 65.875 108.451 -110.354 -36.3137 -138.554 127.52 -42.5847 -126.194 -56.4717 14.4405 -8.04473 -5.18844 2.01064 -17.1452 77.2891 -26.0145 41.749 41.0229 -51.1372 -44.4254 -60.7321 -19.7638 4.06174 -8.473 0.099329 3.03965 -128.103 -2.70277 -18.8416 81.0328 8.57284 6.86159 46.4923 -2.76801 -5.41956 -122.862 4.2548 -4.39309 73.0188 -9.1968 -4.59091 53.2666 2.01554 -0.318818 -17.2743 55.2564 -43.3764 0.665626 -33.416 -6.02719 
-14.5471 46.3401 -348.52 -5.51413 -1.15253 106.609 -163.707 -0.713361 -13.187 -26.1193 -5.33341 18.0295 -21.5846 -20.4039 16.2237 -113.004 66.123 108.537 -110.343 -36.2997 -138.553 127.813 -42.9475 -126.656 -56.7547 13.9708 -7.6171 -5.02203 2.03415 -17.4013 77.2631 -26.0416 41.7201 41.0569 -50.9615 -44.439 -60.5646 -20.0002 4.07753 -8.81444 0.140573 2.8981 -128.167 -2.7037 -18.8895 81.0384 8.43484 6.93239 46.4139 -2.75547 -5.41 -122.935 4.25351 -4.3861 72.9565 -9.23736 -4.59858 53.1964 2.02406 -0.303767 -18.2318 55.9679 -42.4381 0.276202 -34.7343 -6.01165 
-14.4981 46.3475 -348.542 -5.42058 -1.15526 106.588 -163.724 -0.721916 -13.1602 -26.023 -5.36665 18.1011 -21.6942 -20.1976 16.0401 -112.719 66.3415 108.469 -110.353 -36.251 -138.674 127.434 -42.5629 -126.631 -56.6472 14.2907 -7.81737 -5.12032 1.9557 -16.927 77.2152 -26.1183 41.745 41.1195 -50.7839 -44.3871 -60.3554 -20.4751 4.08319 -9.14287 0.230231 2.62371 -127.959 -2.86597 -18.6723 80.846 8.49441 6.88941 46.235 -2.76234 -5.4126 -122.963 4.20173 -4.19218 73.0136 -9.07053 -4.6139 53.2156 2.00184 -0.331853 -19.2915 56.8033 -41.0828 -0.313796 -36.3749 -6.06467 
-14.4422 46.3483 -348.557 -5.3232 -1.1707 106.567 -163.685 -0.70358 -13.0883 -26.0216 -5.35309 18.0819 -21.8203 -20.0957 15.8565 -112.264 66.3817 108.362 -110.367 -36.2926 -138.63 127.286 -42.1488 -126.035 -56.1816 14.7522 -8.25009 -5.34027 1.90586 -16.4946 77.2195 -26.1564 41.8725 41.0051 -50.8299 -44.3637 -60.2776 -20.5702 4.03988 -9.18675 0.257952 2.56845 -127.681 -2.78297 -18.4375 80.5643 9.29422 6.84781 46.3779 -2.85805 -5.5426 -123.006 4.12641 -3.97907 73.1151 -8.95705 -4.62645 53.2882 1.97767 -0.366854 -20.6213 57.769 -39.3926 -1.0108 -38.4878 -6.10374 
